<?xml version="1.0"?>
<svg xmlns="http://www.w3.org/2000/svg" xmlns:xlink="http://www.w3.org/1999/xlink" version="1.1" id="Capa_1" x="0px" y="0px" viewBox="0 0 512.017 512.017" style="enable-background:new 0 0 512.017 512.017;" xml:space="preserve" width="512px" height="512px" class=""><g><g>
	<g>
		<path d="M53.467,42.667c-5.891,0-10.667,4.775-10.667,10.666V96h21.333V64h32V42.667H53.467z" data-original="#000000" class="active-path" data-old_color="#0665a0" fill="#0665a0"/>
	</g>
</g><g>
	<g>
		<rect x="42.8" y="117.33" width="21.333" height="21.333" data-original="#000000" class="active-path" data-old_color="#0665a0" fill="#0665a0"/>
	</g>
</g><g>
	<g>
		<path d="M454.342,364.661c-1.81-1.297-3.981-1.994-6.208-1.995h-74.667V352c0-5.891-4.776-10.667-10.667-10.667V320h53.333    c17.673,0,32-14.327,32-32V32c0-17.673-14.327-32-32-32h-384c-17.673,0-32,14.327-32,32v256c0,17.673,14.327,32,32,32h114.33    l-15.976,64H106.8v21.333h92.479c-17.673,37.258-1.796,81.789,35.462,99.462c37.258,17.673,81.789,1.796,99.462-35.462h35.861    c12.373,26.018,38.592,42.615,67.403,42.667c34.534-0.123,64.478-23.913,72.406-57.525    C519.34,414.339,494.478,374.128,454.342,364.661z M32.134,298.669c-5.891-0.002-10.667-4.778-10.667-10.669v-32h234.667v-21.333    H21.467V32c0-5.891,4.776-10.667,10.667-10.667h384c5.891,0,10.667,4.776,10.667,10.667v202.667h-42.667V256H426.8v32    c0,5.891-4.776,10.667-10.667,10.667H362.8v-53.333c0-5.891-4.776-10.667-10.667-10.667H298.8v-43.44    c15.864-2.289,30.678-9.635,42.144-21.104c29.155-29.164,29.148-76.44-0.016-105.595c-29.164-29.155-76.44-29.148-105.595,0.016    c-4.164,4.165-4.164,10.917,0,15.083l37.717,37.707l-37.717,37.707c-4.164,4.165-4.164,10.917,0,15.083    c11.441,11.503,26.261,18.861,42.133,21.126v54.085c0,5.891,4.776,10.667,10.667,10.667h53.333v42.667H32.134z M295.675,109.792    l-36.96-36.96c17.828-11.776,40.963-11.776,58.79,0c24.577,16.234,31.341,49.319,15.106,73.896    c-16.234,24.577-49.319,31.341-73.896,15.106l36.96-36.96C299.839,120.709,299.839,113.957,295.675,109.792z M152.476,384    l15.976-64h173.015v21.333c-5.891,0-10.667,4.776-10.667,10.667v10.667h-64c-20.401-0.016-39.51,8.288-53.333,22.363V384H152.476z     M455.274,487.727c-27.787,9.771-58.234-4.835-68.005-32.623c-1.509-4.26-5.539-7.106-10.059-7.104h-50.133    c-4.519-0.002-8.549,2.844-10.059,7.104c-7.54,21.336-27.724,35.591-50.353,35.563c-29.455-0.037-53.303-23.945-53.266-53.4    c0.037-29.455,23.945-53.303,53.4-53.266h176.907c0.853,0.387,1.753,0.659,2.677,0.811c19.164,3.206,35.068,16.581,41.513,34.911    C497.668,447.509,483.062,477.956,455.274,487.727z" data-original="#000000" class="active-path" data-old_color="#0665a0" fill="#0665a0"/>
	</g>
</g><g>
	<g>
		<rect x="234.8" y="426.67" width="21.333" height="21.333" data-original="#000000" class="active-path" data-old_color="#0665a0" fill="#0665a0"/>
	</g>
</g><g>
	<g>
		<rect x="256.13" y="448" width="21.333" height="21.333" data-original="#000000" class="active-path" data-old_color="#0665a0" fill="#0665a0"/>
	</g>
</g><g>
	<g>
		<rect x="277.47" y="426.67" width="21.333" height="21.333" data-original="#000000" class="active-path" data-old_color="#0665a0" fill="#0665a0"/>
	</g>
</g><g>
	<g>
		<rect x="256.13" y="405.33" width="21.333" height="21.333" data-original="#000000" class="active-path" data-old_color="#0665a0" fill="#0665a0"/>
	</g>
</g><g>
	<g>
		<rect x="426.8" y="405.33" width="21.333" height="21.333" data-original="#000000" class="active-path" data-old_color="#0665a0" fill="#0665a0"/>
	</g>
</g><g>
	<g>
		<rect x="405.47" y="426.67" width="21.333" height="21.333" data-original="#000000" class="active-path" data-old_color="#0665a0" fill="#0665a0"/>
	</g>
</g><g>
	<g>
		<rect x="426.8" y="448" width="21.333" height="21.333" data-original="#000000" class="active-path" data-old_color="#0665a0" fill="#0665a0"/>
	</g>
</g><g>
	<g>
		<rect x="448.13" y="426.67" width="21.333" height="21.333" data-original="#000000" class="active-path" data-old_color="#0665a0" fill="#0665a0"/>
	</g>
</g><g>
	<g>
		<rect x="160.13" y="85.33" width="21.333" height="21.333" data-original="#000000" class="active-path" data-old_color="#0665a0" fill="#0665a0"/>
	</g>
</g><g>
	<g>
		<rect x="160.13" y="128" width="21.333" height="21.333" data-original="#000000" class="active-path" data-old_color="#0665a0" fill="#0665a0"/>
	</g>
</g><g>
	<g>
		<rect x="138.8" y="106.67" width="21.333" height="21.333" data-original="#000000" class="active-path" data-old_color="#0665a0" fill="#0665a0"/>
	</g>
</g><g>
	<g>
		<rect x="181.47" y="106.67" width="21.333" height="21.333" data-original="#000000" class="active-path" data-old_color="#0665a0" fill="#0665a0"/>
	</g>
</g></g> </svg>
